<svg id="Layer_1" data-name="Layer 1" xmlns="http://www.w3.org/2000/svg" viewBox="0 0 432 113.51">
  <g>
    <path d="M128.23,232H110.05c0,23.67-.07,39-.11,62.67-8.08-23.89-16.17-39.43-24.29-65.21L69,232V343c5.89-.81,12.21-1.58,18.11-2.31,0-23.2,0-37.45,0-60.65,8.12,22.83,13.11,36.3,21.21,58,6.35-.69,13.32-1.55,19.67-2.16q.11-51.91.19-103.84" transform="translate(-69 -229.46)" style="fill: #ed2517"/>
    <path d="M196.16,232H145.78q-.1,51.19-.2,102.38,25.28-2.2,50.61-3.6c0-5,0-12.16,0-17.15-11,.64-21.48,1.32-32.42,2,0-9.17,0-16.76.06-25.94,8-.13,16.44,0,24.61-.15,0-5,0-12.21,0-17.22-8.1.13-16.65.15-24.61.29,0-9.17,0-14.2.06-23.38,5-.06,9.92-.06,14.82-.06h5.15c4.09,0,8.19,0,12.37,0,0-5-.13-12.16-.12-17.15" transform="translate(-69 -229.46)" style="fill: #ed2517"/>
    <path d="M264.07,232.08H208c0,5,0,12.1,0,17h2.41c2.44,0,4.87,0,7.31,0s4.87.05,7.31.05h1.87c0,27.51-.07,52.64-.11,80.15,5.93-.21,12.29-.39,18.22-.53,0-27.36.06-52.34.08-79.7l19,0c0-4.88,0-12.13,0-17" transform="translate(-69 -229.46)" style="fill: #ed2517"/>
    <path d="M326.46,232H275.87q0,48.18,0,96.36h5.92c4,0,8.12,0,12.1,0,0-13.64,0-26.08,0-39.71h3l7.14,0,7.2,0c2.46,0,4.9,0,7.28,0,0-4.89,0-12.16,0-17-2.25,0-4.55,0-6.88,0l-7.51,0H293.87c0-8.76,0-13.71,0-22.47h17.91c4.88,0,9.77,0,14.71,0,0-4.9,0-12.31,0-17.21" transform="translate(-69 -229.46)" style="fill: #ed2517"/>
    <path d="M338.27,232.08c0,32.43-.12,64.86-.07,97.29,16.17.58,33.17,1.2,49.32,2.27,0-5,0-12.16,0-17.15-10.23-.58-20.87-1.27-31.1-1.67-.05-27.78.11-53,.07-80.74H338.27" transform="translate(-69 -229.46)" style="fill: #ed2517"/>
    <path d="M402.44,232.08l.21,100.62c5.93.43,12.06.9,18,1.41q0-51,0-102H402.44" transform="translate(-69 -229.46)" style="fill: #ed2517"/>
    <path d="M436.22,232.08c7.28,17,13.93,34,21.31,52-7.67,17.29-15.49,34.48-23.15,51.07,6.35.6,12.92,1.48,19.27,2.16,4.55-10.69,8.69-18.92,13.25-29.89,4.55,11.69,8.68,20.72,13.22,32.79,6.34.78,14.55,1.91,20.88,2.78-7.67-19.63-16.06-40.07-23.77-58.62,7.68-17.42,15.52-34.05,23.49-52.26H480.86c-4.92,11.25-8.31,18.49-13,29.2-4.39-11.15-7.34-18.36-11.75-29.21H436.22" transform="translate(-69 -229.46)" style="fill: #ed2517"/>
  </g>
</svg>
